<?xml version="1.0" standalone="no"?><!DOCTYPE svg PUBLIC "-//W3C//DTD SVG 1.1//EN" "http://www.w3.org/Graphics/SVG/1.1/DTD/svg11.dtd"><svg t="1745571709165" class="icon" viewBox="0 0 1024 1024" version="1.1" xmlns="http://www.w3.org/2000/svg" p-id="37468" xmlns:xlink="http://www.w3.org/1999/xlink" width="32" height="32"><path d="M426.676 341.368h170.618V810.62h-170.618z" fill="#D7DADD" p-id="37469"></path><path d="M618.632 789.248c0 11.81-9.53 21.372-21.34 21.372-11.778 0-21.306-9.56-21.306-21.372 0-11.748 9.53-21.306 21.306-21.306 11.812 0 21.34 9.558 21.34 21.306zM448.016 789.248c0 11.81-9.56 21.372-21.34 21.372-11.778 0-21.338-9.56-21.338-21.372 0-11.748 9.56-21.306 21.338-21.306 11.78 0 21.34 9.558 21.34 21.306z" fill="#D7DADD" p-id="37470"></path><path d="M586.64 405.352m-63.986 0a63.986 63.986 0 1 0 127.972 0 63.986 63.986 0 1 0-127.972 0Z" fill="#E6E9ED" p-id="37471"></path><path d="M501.314 405.352c0 35.336-28.618 63.986-63.984 63.986-35.336 0-63.986-28.65-63.986-63.986s28.65-63.984 63.986-63.984c35.368 0 63.984 28.648 63.984 63.984zM512 469.338c-11.778 0-21.338 9.558-21.338 21.338v255.958c0 11.748 9.56 21.308 21.338 21.308 11.78 0 21.308-9.56 21.308-21.308V490.676c0-11.78-9.528-21.338-21.308-21.338z" fill="#E6E9ED" p-id="37472"></path><path d="M437.33 341.368h149.31v63.984h-149.31z" fill="#E6E9ED" p-id="37473"></path><path d="M607.978 405.352c0 11.78-9.56 21.34-21.338 21.34-11.78 0-21.34-9.56-21.34-21.34s9.56-21.322 21.34-21.322c11.778 0 21.338 9.542 21.338 21.322zM458.668 405.352c0 11.78-9.528 21.34-21.338 21.34-11.78 0-21.308-9.56-21.308-21.34s9.53-21.322 21.308-21.322a21.312 21.312 0 0 1 21.338 21.322z" fill="#CCD1D9" p-id="37474"></path><path d="M725.266 341.368h170.648V810.62h-170.648z" fill="#D7DADD" p-id="37475"></path><path d="M917.22 789.248c0 11.81-9.53 21.372-21.306 21.372-11.78 0-21.34-9.56-21.34-21.372 0-11.748 9.56-21.306 21.34-21.306 11.778 0 21.306 9.558 21.306 21.306zM746.604 789.248c0 11.81-9.53 21.372-21.338 21.372-11.78 0-21.308-9.56-21.308-21.372 0-11.748 9.53-21.306 21.308-21.306 11.808 0 21.338 9.558 21.338 21.306z" fill="#D7DADD" p-id="37476"></path><path d="M949.212 405.352c0 35.336-28.62 63.986-63.986 63.986-35.334 0-63.984-28.65-63.984-63.986s28.65-63.984 63.984-63.984c35.368 0 63.986 28.648 63.986 63.984z" fill="#E6E9ED" p-id="37477"></path><path d="M735.95 405.352m-63.984 0a63.984 63.984 0 1 0 127.968 0 63.984 63.984 0 1 0-127.968 0Z" fill="#E6E9ED" p-id="37478"></path><path d="M810.59 469.338c-11.78 0-21.34 9.558-21.34 21.338v255.958c0 11.748 9.56 21.308 21.34 21.308 11.778 0 21.338-9.56 21.338-21.308V490.676c0-11.78-9.56-21.338-21.338-21.338zM735.95 341.368h149.278v63.984h-149.278z" fill="#E6E9ED" p-id="37479"></path><path d="M906.566 405.352c0 11.78-9.528 21.34-21.34 21.34-11.778 0-21.306-9.56-21.306-21.34s9.53-21.322 21.306-21.322c11.814 0 21.34 9.542 21.34 21.322zM757.258 405.352c0 11.78-9.53 21.34-21.308 21.34s-21.34-9.56-21.34-21.34 9.562-21.322 21.34-21.322 21.308 9.542 21.308 21.322z" fill="#CCD1D9" p-id="37480"></path><path d="M981.208 341.368H42.764L0.118 256.058 512 0.118l511.882 255.94z" fill="#F5F7FA" p-id="37481"></path><path d="M85.41 810.62h853.148v127.97H85.41z" fill="#E6E9ED" p-id="37482"></path><path d="M42.764 895.912h938.444v127.97H42.764z" fill="#F5F7FA" p-id="37483"></path><path d="M0.118 256.058l42.646 85.31h938.444l42.674-85.31z" fill="#E6E9ED" p-id="37484"></path><path d="M128.088 341.368h170.618V810.62H128.088z" fill="#D7DADD" p-id="37485"></path><path d="M320.044 789.248c0 11.81-9.56 21.372-21.34 21.372-11.778 0-21.338-9.56-21.338-21.372 0-11.748 9.56-21.306 21.338-21.306 11.78 0 21.34 9.558 21.34 21.306zM149.396 789.248c0 11.81-9.53 21.372-21.308 21.372s-21.338-9.56-21.338-21.372c0-11.748 9.56-21.306 21.338-21.306 11.78 0 21.308 9.558 21.308 21.306z" fill="#D7DADD" p-id="37486"></path><path d="M288.052 405.352m-63.986 0a63.986 63.986 0 1 0 127.972 0 63.986 63.986 0 1 0-127.972 0Z" fill="#E6E9ED" p-id="37487"></path><path d="M138.742 405.352m-63.986 0a63.986 63.986 0 1 0 127.972 0 63.986 63.986 0 1 0-127.972 0Z" fill="#E6E9ED" p-id="37488"></path><path d="M213.38 469.338c-11.778 0-21.306 9.558-21.306 21.338v255.958c0 11.748 9.53 21.308 21.306 21.308 11.81 0 21.34-9.56 21.34-21.308V490.676c0-11.78-9.528-21.338-21.34-21.338zM138.742 341.368h149.308v63.984H138.742z" fill="#E6E9ED" p-id="37489"></path><path d="M309.36 405.352c0 11.78-9.53 21.34-21.308 21.34s-21.338-9.56-21.338-21.34 9.56-21.322 21.338-21.322 21.308 9.542 21.308 21.322zM160.08 405.352c0 11.78-9.558 21.34-21.338 21.34s-21.34-9.56-21.34-21.34 9.56-21.322 21.34-21.322 21.338 9.542 21.338 21.322z" fill="#CCD1D9" p-id="37490"></path></svg>