<?xml version="1.0" standalone="no"?><!DOCTYPE svg PUBLIC "-//W3C//DTD SVG 1.1//EN" "http://www.w3.org/Graphics/SVG/1.1/DTD/svg11.dtd"><svg t="1745571679092" class="icon" viewBox="0 0 1024 1024" version="1.1" xmlns="http://www.w3.org/2000/svg" p-id="37131" xmlns:xlink="http://www.w3.org/1999/xlink" width="32" height="32"><path d="M959.992 639.996c-11.782 0-21.312-9.562-21.312-21.344V576c0-11.782 9.532-21.344 21.312-21.344s21.312 9.562 21.312 21.344v42.652c0 11.782-9.53 21.344-21.312 21.344z" fill="#E6E9ED" p-id="37132"></path><path d="M1002.678 661.34h-85.374c-11.75 0-21.312-9.562-21.312-21.344s9.562-21.344 21.312-21.344h85.374c11.75 0 21.312 9.562 21.312 21.344s-9.562 21.344-21.312 21.344zM618.686 512c-11.812 0-21.376-9.562-21.376-21.344v-21.312c0-11.782 9.562-21.344 21.376-21.344 11.75 0 21.31 9.562 21.31 21.344v21.312c0 11.782-9.56 21.344-21.31 21.344zM469.33 426.658c-11.782 0-21.328-9.532-21.328-21.312v-21.344c0-11.782 9.546-21.344 21.328-21.344 11.78 0 21.342 9.562 21.342 21.344v21.344c0 11.78-9.562 21.312-21.342 21.312z" fill="#E6E9ED" p-id="37133"></path><path d="M980.304 508.376c-19.812-11.876-46.75-21.282-80.124-27.968-54.782-10.938-108.592-11.062-110.874-11.062-11.748 0-21.31 9.532-21.31 21.312V576c0 11.782 9.562 21.344 21.31 21.344h213.372c11.75 0 21.312-9.562 21.312-21.344 0-18.906-7.562-45.968-43.686-67.624z" fill="#ED5564" p-id="37134"></path><path d="M789.306 469.344H512v-63.998c0-11.782-9.546-21.344-21.328-21.344-218.886 0-324.54 90.998-328.93 94.874a21.502 21.502 0 0 0-6.86 12.156l-26.532 145.12a21.262 21.262 0 0 0 4.61 17.5 21.27 21.27 0 0 0 16.376 7.688h469.35c4.594 0 9.062-1.5 12.782-4.282l85.342-63.996c9.406-7.062 11.312-20.438 4.25-29.876-5.312-7.094-14.218-9.906-22.312-7.876L789.306 512c11.812 0 21.376-9.562 21.376-21.344s-9.562-21.312-21.376-21.312z" fill="#ED5564" p-id="37135"></path><path d="M512 469.344v-63.998c0-11.782-9.546-21.344-21.328-21.344-218.886 0-324.54 90.998-328.93 94.874a21.502 21.502 0 0 0-6.86 12.156l-26.532 145.12a21.262 21.262 0 0 0 4.61 17.5c4.046 4.876 22.032-150.964 28.36-150.964L512 469.344z" fill="#DA4453" p-id="37136"></path><path d="M66.696 576H21.338C9.556 576 0.01 566.438 0.01 554.656V362.66c0-11.782 9.546-21.312 21.328-21.312h170.668c11.782 0 21.328 9.532 21.328 21.312v42.688c0 5-1.766 9.874-4.984 13.686L83.04 568.376A21.286 21.286 0 0 1 66.696 576z" fill="#E6E9ED" p-id="37137"></path><path d="M149.334 469.344c-58.812 0-106.654 47.842-106.654 106.656 0 58.808 47.842 106.652 106.654 106.652 58.828 0 106.67-47.844 106.67-106.652 0-58.812-47.842-106.656-106.67-106.656z" fill="#434A54" p-id="37138"></path><path d="M164.428 591.094c-8.328 8.312-21.844 8.312-30.172 0-8.328-8.344-8.328-21.844 0-30.188 8.328-8.312 21.844-8.312 30.172 0 8.328 8.344 8.328 21.844 0 30.188z" fill="#F5F7FA" p-id="37139"></path><path d="M565.312 469.344h21.374v191.996h-21.374zM469.33 597.344h-127.998c-11.782 0-21.328-9.562-21.328-21.344s9.546-21.344 21.328-21.344h127.998c11.78 0 21.342 9.562 21.342 21.344s-9.562 21.344-21.342 21.344z" fill="#DA4453" p-id="37140"></path><path d="M789.306 469.344c-58.81 0-106.624 47.842-106.624 106.656 0 58.808 47.812 106.652 106.624 106.652 58.842 0 106.686-47.844 106.686-106.652 0-58.812-47.844-106.656-106.686-106.656z" fill="#434A54" p-id="37141"></path><path d="M804.432 591.094c-8.344 8.312-21.874 8.312-30.186 0-8.312-8.344-8.312-21.844 0-30.188 8.312-8.312 21.842-8.312 30.186 0 8.312 8.344 8.312 21.844 0 30.188z" fill="#F5F7FA" p-id="37142"></path></svg>