<?xml version="1.0" standalone="no"?><!DOCTYPE svg PUBLIC "-//W3C//DTD SVG 1.1//EN" "http://www.w3.org/Graphics/SVG/1.1/DTD/svg11.dtd"><svg t="1745571807987" class="icon" viewBox="0 0 1024 1024" version="1.1" xmlns="http://www.w3.org/2000/svg" p-id="38311" xmlns:xlink="http://www.w3.org/1999/xlink" width="32" height="32"><path d="M874.426 256.508c-11.782 0-21.308-9.546-21.308-21.328V171.232c0-11.782 9.528-21.312 21.308-21.312s21.312 9.532 21.312 21.312v63.95c0 11.78-9.53 21.326-21.312 21.326zM959.706 256.508c-11.78 0-21.31-9.546-21.31-21.328V171.232a21.298 21.298 0 0 1 21.31-21.312c11.75 0 21.312 9.532 21.312 21.312v63.95c0 11.78-9.562 21.326-21.312 21.326z" fill="#FFCE54" p-id="38312"></path><path d="M277.576 298.476H192.298c-11.782 0-21.328 9.546-21.328 21.328v191.868c0 8.888 5.516 16.842 13.844 19.952a21.304 21.304 0 0 0 23.546-5.936l85.278-97.698a21.428 21.428 0 0 0 5.25-14.016v-94.168c0-11.782-9.546-21.33-21.312-21.33z" fill="#434A54" p-id="38313"></path><path d="M128.332 106.61h42.638c-23.546 0-42.638-19.094-42.638-42.64s19.092-42.64 42.638-42.64h426.374c23.562 0 42.624 19.094 42.624 42.64s-19.06 42.64-42.624 42.64H298.888c23.546 0 42.638 19.092 42.638 42.638s-19.092 42.64-42.638 42.64h-21.312v42.638c0 23.546-19.092 42.638-42.64 42.638-23.544 0-42.638-19.092-42.638-42.638v-42.64H128.332c-23.546 0-42.624-19.092-42.624-42.64 0-23.544 19.078-42.636 42.624-42.636z" fill="#F5F7FA" p-id="38314"></path><path d="M234.936 298.476c-35.264 0-63.966-28.688-63.966-63.952v-21.328H128.332c-35.264 0-63.95-28.686-63.95-63.952 0-29.434 20-54.31 47.138-61.716a63.486 63.486 0 0 1-4.5-23.562C107.02 28.702 135.706 0.016 170.97 0.016h426.374c35.248 0 63.966 28.686 63.966 63.95s-28.718 63.966-63.966 63.966H359.198a63.774 63.774 0 0 1 3.64 21.312c0 35.266-28.686 63.952-63.95 63.952v21.328c0 35.266-28.686 63.952-63.952 63.952z m-106.604-170.54c-11.75 0-21.312 9.562-21.312 21.312 0 11.766 9.562 21.328 21.312 21.328h63.966c11.764 0 21.312 9.532 21.312 21.312v42.638c0 11.75 9.562 21.312 21.326 21.312 11.75 0 21.312-9.562 21.312-21.312v-42.64c0-11.78 9.546-21.312 21.328-21.312h21.312c11.75 0 21.312-9.562 21.312-21.328 0-11.75-9.562-21.312-21.312-21.312-11.78 0-21.312-9.544-21.312-21.326 0-11.766 9.532-21.312 21.312-21.312h298.456c11.75 0 21.312-9.562 21.312-21.328 0-11.75-9.562-21.312-21.312-21.312H170.97c-11.75 0-21.312 9.562-21.312 21.312 0 11.764 9.562 21.328 21.312 21.328 11.782 0 21.328 9.546 21.328 21.312 0 11.782-9.546 21.326-21.328 21.326H128.332z" fill="#E6E9ED" p-id="38315"></path><path d="M669.624 724.866c-8.344 0-16.282-4.936-19.688-13.124-4.532-10.876 0.594-23.344 11.468-27.876 55.186-23 101.778-54.06 138.496-92.306 29.31-30.5 52.498-65.718 68.962-104.654 28.282-66.934 26.906-122.542 26.876-123.088-0.344-11.75 8.876-21.608 20.594-22 11.75-0.39 21.624 8.764 22.032 20.514 0.094 2.578 1.906 63.982-29.406 139.198-18.376 44.092-44.376 83.998-77.34 118.556-40.966 42.966-92.716 77.654-153.806 103.122a21.168 21.168 0 0 1-8.188 1.658z" fill="#434A54" p-id="38316"></path><path d="M933.238 690.18L485.49 177.856a21.34 21.34 0 0 0-32.108 0L5.634 690.18a21.266 21.266 0 0 0-3.36 22.844 21.342 21.342 0 0 0 19.406 12.498h106.652v277.146c0 11.782 9.546 21.312 21.328 21.312h639.554a21.3 21.3 0 0 0 21.312-21.312V725.522h106.65c8.376 0 15.968-4.906 19.438-12.498a21.364 21.364 0 0 0-3.376-22.844z" fill="#FFCE54" p-id="38317"></path><path d="M936.614 713.024a21.36 21.36 0 0 0-3.376-22.844L485.49 177.856a21.34 21.34 0 0 0-32.108 0L5.634 690.18a21.266 21.266 0 0 0-3.36 22.844 21.342 21.342 0 0 0 19.406 12.498h106.652l341.112-383.734 341.082 383.734h106.65c8.374 0 15.968-4.906 19.438-12.498z" fill="#ED5564" p-id="38318"></path><path d="M576.034 725.522H362.838c-11.764 0-21.312 9.532-21.312 21.312V1023.98h255.818V746.834c0-11.782-9.56-21.312-21.31-21.312z" fill="#ED5564" p-id="38319"></path><path d="M420.494 859.672c8.328 8.312 8.328 21.812 0 30.156-8.328 8.312-21.828 8.312-30.156 0-8.312-8.344-8.312-21.844 0-30.156 8.328-8.31 21.828-8.31 30.156 0z" fill="#434A54" p-id="38320"></path><path d="M1002.328 213.87h-170.554c-11.748 0-21.31 9.546-21.31 21.312v42.638c0 58.78 47.806 106.59 106.588 106.59 58.78 0 106.59-47.81 106.59-106.59v-42.638c-0.002-11.766-9.532-21.312-21.314-21.312z" fill="#656D78" p-id="38321"></path></svg>