<?xml version="1.0" standalone="no"?><!DOCTYPE svg PUBLIC "-//W3C//DTD SVG 1.1//EN" "http://www.w3.org/Graphics/SVG/1.1/DTD/svg11.dtd"><svg t="1745571747227" class="icon" viewBox="0 0 1024 1024" version="1.1" xmlns="http://www.w3.org/2000/svg" p-id="37973" xmlns:xlink="http://www.w3.org/1999/xlink" width="32" height="32"><path d="M687.338 917.418H345.942l42.562-170.558 256.208-0.064z" fill="#CCD1D9" p-id="37974"></path><path d="M955.33 768.046a21.3 21.3 0 0 1-21.312 21.312H99.292c-11.782 0-21.344-9.532-21.344-21.312V127.924c0-11.78 9.562-21.342 21.344-21.342h834.724c11.782 0 21.312 9.562 21.312 21.342v640.122z" fill="#4FC2E9" p-id="37975"></path><path d="M77.95 704.048v63.998c0 11.782 9.562 21.312 21.344 21.312h834.724a21.3 21.3 0 0 0 21.312-21.312v-63.998H77.95z" fill="#E6E9ED" p-id="37976"></path><path d="M537.966 746.704c0 11.782-9.532 21.344-21.312 21.344-11.81 0-21.342-9.562-21.342-21.344s9.532-21.344 21.342-21.344c11.782 0 21.312 9.562 21.312 21.344z" fill="#434A54" p-id="37977"></path><path d="M687.338 874.73H345.942c-11.78 0-21.342 9.562-21.342 21.312 0 11.812 9.562 21.376 21.342 21.376h341.396c11.782 0 21.344-9.562 21.344-21.376 0-11.75-9.562-21.312-21.344-21.312z" fill="#E6E9ED" p-id="37978"></path><path d="M891.332 575.99c-5.906 0-11.218 2.406-15.092 6.25l-42.688 42.686c-3.844 3.876-6.25 9.188-6.25 15.094 0 11.782 9.562 21.344 21.344 21.344 5.906 0 11.25-2.406 15.094-6.25l42.686-42.688c3.842-3.876 6.248-9.188 6.248-15.094 0-11.78-9.56-21.342-21.342-21.342zM906.394 527.086a21.26 21.26 0 0 0 6.28-15.094c0-11.782-9.56-21.344-21.342-21.344a21.176 21.176 0 0 0-15.092 6.266l-128.03 128.012c-3.844 3.876-6.25 9.188-6.25 15.094 0 11.782 9.562 21.344 21.344 21.344 5.906 0 11.218-2.406 15.092-6.25l127.998-128.028z" fill="#3BAFDA" p-id="37979"></path><path d="M934.018 106.582H99.292c-11.782 0-21.344 9.562-21.344 21.342v96.294h877.38V127.924c0.002-11.78-9.53-21.342-21.31-21.342z" fill="#E6E9ED" p-id="37980"></path><path d="M901.8 426.65c67.466 0 122.184-43.67 122.184-97.544 0-5.186-0.532-10.28-1.5-15.25h0.032l-0.718-3.078c-0.094-0.468-0.188-0.938-0.312-1.406l-70.81-138.778h-175.932l29.342 217.026 4.124 4.14c22.406 21.328 55.998 34.89 93.59 34.89z" fill="#DA4453" p-id="37981"></path><path d="M598.81 170.596l9.78 217.026c22.282 23.702 57.78 39.03 97.748 39.03 39.966 0 75.434-15.328 97.746-39.03L774.742 170.596h-175.932z" fill="#E6E9ED" p-id="37982"></path><path d="M122.2 426.65c-67.498 0-122.184-43.67-122.184-97.544 0-5.186 0.53-10.28 1.498-15.25H1.482l0.718-3.078c0.094-0.468 0.188-0.938 0.312-1.406l70.81-138.778h175.934L219.912 387.62l-4.124 4.14C193.384 413.088 159.76 426.65 122.2 426.65z" fill="#DA4453" p-id="37983"></path><path d="M425.19 170.596l-9.782 217.026c-22.31 23.702-57.78 39.03-97.746 39.03-39.968 0-75.436-15.328-97.748-39.03l29.344-217.026h175.932z" fill="#E6E9ED" p-id="37984"></path><path d="M422.876 170.596l-9.75 217.026c22.282 23.702 57.75 39.03 97.716 39.03s75.466-15.328 97.746-39.03l-9.78-217.026h-175.932z" fill="#DA4453" p-id="37985"></path><path d="M2.388 309.874a54.78 54.78 0 0 1-0.188 0.906l-0.718 3.078h0.032a79.652 79.652 0 0 0-1.498 15.25c0 53.874 54.686 97.544 122.184 97.544 37.56 0 71.186-13.562 93.59-34.888l4.124-4.14 10.5-77.748H2.388z" fill="#ED5564" p-id="37986"></path><path d="M230.414 309.874l-10.5 77.748c22.312 23.702 57.78 39.03 97.748 39.03 39.966 0 75.436-15.328 97.746-39.03l3.5-77.748h-188.494z" fill="#F5F7FA" p-id="37987"></path><path d="M416.626 309.874l-3.5 77.748c22.282 23.702 57.75 39.03 97.716 39.03s75.466-15.328 97.746-39.03l-3.498-77.748h-188.464z" fill="#ED5564" p-id="37988"></path><path d="M605.092 309.874l3.498 77.748c22.282 23.702 57.78 39.03 97.748 39.03 39.966 0 75.434-15.328 97.746-39.03l-10.532-77.748h-188.46z" fill="#F5F7FA" p-id="37989"></path><path d="M1022.516 313.858l-0.718-3.078a220.76 220.76 0 0 1-0.188-0.906H793.552l10.532 77.748 4.124 4.14c22.406 21.326 56 34.888 93.592 34.888 67.466 0 122.184-43.67 122.184-97.544 0-5.186-0.532-10.28-1.5-15.25h0.032z" fill="#ED5564" p-id="37990"></path></svg>