<?xml version="1.0" standalone="no"?><!DOCTYPE svg PUBLIC "-//W3C//DTD SVG 1.1//EN" "http://www.w3.org/Graphics/SVG/1.1/DTD/svg11.dtd"><svg t="1745571592518" class="icon" viewBox="0 0 1024 1024" version="1.1" xmlns="http://www.w3.org/2000/svg" p-id="36965" xmlns:xlink="http://www.w3.org/1999/xlink" width="32" height="32"><path d="M697.34 743.684l-126.154-21.72 120.592-700.33 118.904 63.748zM509.718 787.65l-125.528-24.936 138.404-697.05 117.248 66.78z" fill="#F5BA45" p-id="36966"></path><path d="M512 765.59l127.216 14.218L718.028 73.54l-131.936 28.186zM398.876 762.184l-125.278 26.248L128.008 92.82l134.028 15.562z" fill="#FECD57" p-id="36967"></path><path d="M374.472 853.336l125.152-26.904-149.372-694.8-116.154 68.624z" fill="#F5BA45" p-id="36968"></path><path d="M552.966 690.902l-127.12 14.906L343.034 0.01l132.092 27.452zM626.592 828.65l125.996 22.498 124.844-699.61-133.5 19.53z" fill="#FECD57" p-id="36969"></path><path d="M810.682 1023.99S666.28 1002.646 512 1002.646c-154.278 0-298.65 21.344-298.65 21.344L128.008 298.66h149.34S336.846 469.312 512 469.312c175.186 0 234.682-170.652 234.682-170.652h149.31l-85.31 725.33z" fill="#EC5564" p-id="36970"></path><path d="M858.37 618.654H165.664l25.092 213.34h642.488z" fill="#F5BA45" p-id="36971"></path><path d="M703.996 727.152c0 106.028-85.966 191.996-191.996 191.996s-191.996-85.968-191.996-191.996c0-106.03 85.966-191.996 191.996-191.996s191.996 85.968 191.996 191.996z" fill="#FECD57" p-id="36972"></path><path d="M597.342 703.996c0-11.782-9.562-21.344-21.344-21.344H448c-11.782 0-21.312 9.562-21.312 21.344s9.53 21.312 21.312 21.312h127.998c11.782 0 21.344-9.53 21.344-21.312zM554.686 746.652h-85.34c-11.782 0-21.344 9.562-21.344 21.344s9.562 21.31 21.344 21.31h85.34c11.782 0 21.312-9.53 21.312-21.31s-9.532-21.344-21.312-21.344z" fill="#424953" p-id="36973"></path><path d="M853.338 298.66l-84.688 719.924c26.406 3.094 42.032 5.406 42.032 5.406l85.31-725.33h-42.654zM469.344 1002.646c-103.56 0-202.684 9.624-256.62 15.938l0.624 5.406s131.34-19.406 277.338-21.218c-7.092-0.064-14.216-0.126-21.342-0.126z" fill="#FFFFFF" opacity=".2" p-id="36974"></path></svg>