<?xml version="1.0" standalone="no"?><!DOCTYPE svg PUBLIC "-//W3C//DTD SVG 1.1//EN" "http://www.w3.org/Graphics/SVG/1.1/DTD/svg11.dtd"><svg t="1745571694862" class="icon" viewBox="0 0 1024 1024" version="1.1" xmlns="http://www.w3.org/2000/svg" p-id="37299" xmlns:xlink="http://www.w3.org/1999/xlink" width="32" height="32"><path d="M959.986 522.664H64.012c-11.782 0-21.328 9.546-21.328 21.326v341.302c0 11.812 9.546 21.376 21.328 21.376h895.974c11.782 0 21.31-9.562 21.31-21.376V543.99c0-11.78-9.528-21.326-21.31-21.326z" fill="#CCD1D9" p-id="37300"></path><path d="M1020.39 532.148l-42.656-63.89a21.37 21.37 0 0 0-17.748-9.484H64.012a21.328 21.328 0 0 0-17.734 9.484L3.606 532.148a21.344 21.344 0 0 0-1.078 21.904 21.338 21.338 0 0 0 18.812 11.25h981.332c7.844 0 15.062-4.312 18.812-11.25a21.372 21.372 0 0 0-1.094-21.904z" fill="#37BC9B" p-id="37301"></path><path d="M703.994 394.542H320.004c-11.782 0-21.328 9.562-21.328 21.342v469.408c0 11.812 9.546 21.376 21.328 21.376h383.99c11.78 0 21.31-9.562 21.31-21.376V415.884c0-11.78-9.53-21.342-21.31-21.342z" fill="#E6E9ED" p-id="37302"></path><path d="M234.678 650.676H106.682c-11.78 0-21.342-9.562-21.342-21.376 0-11.75 9.562-21.312 21.342-21.312h127.998c11.78 0 21.328 9.562 21.328 21.312-0.002 11.814-9.55 21.376-21.33 21.376zM234.678 735.984H106.682c-11.78 0-21.342-9.562-21.342-21.31 0-11.812 9.562-21.376 21.342-21.376h127.998c11.78 0 21.328 9.562 21.328 21.376-0.002 11.748-9.55 21.31-21.33 21.31zM234.678 821.296H106.682c-11.78 0-21.342-9.532-21.342-21.312s9.562-21.312 21.342-21.312h127.998c11.78 0 21.328 9.532 21.328 21.312s-9.55 21.312-21.33 21.312z" fill="#4A89DC" p-id="37303"></path><path d="M639.996 522.664H384.002c-11.782 0-21.328-9.562-21.328-21.344s9.546-21.328 21.328-21.328h255.994c11.782 0 21.312 9.546 21.312 21.328s-9.53 21.344-21.312 21.344zM639.996 607.988H384.002c-11.782 0-21.328-9.562-21.328-21.31 0-11.812 9.546-21.376 21.328-21.376h255.994c11.782 0 21.312 9.562 21.312 21.376 0 11.748-9.53 21.31-21.312 21.31zM639.996 693.298H384.002c-11.782 0-21.328-9.532-21.328-21.31 0-11.782 9.546-21.312 21.328-21.312h255.994a21.3 21.3 0 0 1 21.312 21.312c0 11.78-9.53 21.31-21.312 21.31zM639.996 778.672H384.002c-11.782 0-21.328-9.562-21.328-21.376 0-11.75 9.546-21.312 21.328-21.312h255.994c11.782 0 21.312 9.562 21.312 21.312 0 11.814-9.53 21.376-21.312 21.376z" fill="#5D9CEC" p-id="37304"></path><path d="M917.3 650.676h-127.996c-11.75 0-21.312-9.562-21.312-21.376 0-11.75 9.562-21.312 21.312-21.312h127.996c11.812 0 21.376 9.562 21.376 21.312a21.366 21.366 0 0 1-21.376 21.376zM917.3 735.984h-127.996c-11.75 0-21.312-9.562-21.312-21.31 0-11.812 9.562-21.376 21.312-21.376h127.996a21.366 21.366 0 0 1 21.376 21.376c0 11.748-9.562 21.31-21.376 21.31zM917.3 821.296h-127.996c-11.75 0-21.312-9.532-21.312-21.312s9.562-21.312 21.312-21.312h127.996c11.812 0 21.376 9.532 21.376 21.312s-9.562 21.312-21.376 21.312z" fill="#4A89DC" p-id="37305"></path><path d="M511.998 906.668c-11.78 0-21.328-9.562-21.328-21.376v-42.624c0-11.812 9.546-21.374 21.328-21.374 11.784 0 21.33 9.56 21.33 21.374v42.624c0 11.814-9.546 21.376-21.33 21.376z" fill="#434A54" p-id="37306"></path><path d="M981.296 906.668H42.684c-11.78 0-21.342-9.562-21.342-21.376 0-11.75 9.562-21.312 21.342-21.312h938.614c11.812 0 21.376 9.562 21.376 21.312a21.368 21.368 0 0 1-21.378 21.376z" fill="#656D78" p-id="37307"></path><path d="M511.998 117.332c-58.81 0-106.668 47.858-106.668 106.668s47.858 106.668 106.668 106.668c58.812 0 106.686-47.858 106.686-106.668s-47.874-106.668-106.686-106.668z" fill="#37BC9B" p-id="37308"></path><path d="M543.998 245.328h-64c-11.78 0-21.328-9.546-21.328-21.328s9.546-21.328 21.328-21.328h64c11.782 0 21.312 9.546 21.312 21.328s-9.53 21.328-21.312 21.328z" fill="#CCD1D9" p-id="37309"></path><path d="M511.998 277.326c-11.78 0-21.328-9.546-21.328-21.326V192c0-11.78 9.546-21.328 21.328-21.328 11.784 0 21.33 9.546 21.33 21.328v64c0 11.78-9.546 21.326-21.33 21.326z" fill="#E6E9ED" p-id="37310"></path><path d="M277.334 437.212H746.68c7.844 0 15.062-4.328 18.812-11.282a21.376 21.376 0 0 0-1.094-21.906l-42.656-63.874a21.334 21.334 0 0 0-17.748-9.484H320.004a21.288 21.288 0 0 0-17.734 9.484L259.6 404.026a21.34 21.34 0 0 0 17.734 33.186z" fill="#48CFAD" p-id="37311"></path></svg>