<?xml version="1.0" standalone="no"?><!DOCTYPE svg PUBLIC "-//W3C//DTD SVG 1.1//EN" "http://www.w3.org/Graphics/SVG/1.1/DTD/svg11.dtd"><svg t="1745642495322" class="icon" viewBox="0 0 1024 1024" version="1.1" xmlns="http://www.w3.org/2000/svg" p-id="36634" xmlns:xlink="http://www.w3.org/1999/xlink" width="32" height="32"><path d="M821.302 234.658c-11.75 0-21.312 9.546-21.312 21.328v85.344c0 11.782 9.562 21.328 21.312 21.328 11.812 0 21.376-9.546 21.376-21.328v-85.344c0-11.78-9.562-21.328-21.376-21.328zM821.302 383.986c-11.75 0-21.312 9.562-21.312 21.342v85.328c0 11.782 9.562 21.328 21.312 21.328 11.812 0 21.376-9.546 21.376-21.328v-85.328c0-11.78-9.562-21.342-21.376-21.342z" fill="#AAB2BC" p-id="36635"></path><path d="M266.666 1013.308c-41.188 0-74.656-33.5-74.656-74.654V85.33c0-41.17 33.468-74.67 74.656-74.67h469.324c41.188 0 74.688 33.5 74.688 74.67v853.324c0 41.154-33.5 74.654-74.688 74.654H266.666z" fill="#E6E9ED" p-id="36636"></path><path d="M735.99 0.004H266.666c-47.124 0-85.344 38.204-85.344 85.326v853.324c0 47.154 38.218 85.342 85.344 85.342h469.324c47.124 0 85.312-38.188 85.312-85.342V85.33c0-47.122-38.186-85.326-85.312-85.326z m64 938.65c0 35.28-28.688 63.998-64 63.998H266.666c-35.282 0-64-28.718-64-63.998V85.33c0-35.294 28.718-63.998 64-63.998h469.324c35.312 0 64 28.704 64 63.998v853.324z" fill="#CCD1D9" p-id="36637"></path><path d="M202.666 149.33h597.324v725.324H202.666z" fill="#5D9CEC" p-id="36638"></path><path d="M650.68 917.31H352.008c-11.812 0-21.342 9.562-21.342 21.344s9.532 21.344 21.342 21.344H650.68c11.75 0 21.312-9.562 21.312-21.344s-9.562-21.344-21.312-21.344z" fill="#CCD1D9" p-id="36639"></path><path d="M671.992 85.33c0 11.782-9.562 21.328-21.312 21.328-11.812 0-21.376-9.546-21.376-21.328s9.562-21.344 21.376-21.344c11.75 0 21.312 9.562 21.312 21.344z" fill="#5D9CEC" p-id="36640"></path><path d="M586.68 63.986H352.008c-11.812 0-21.342 9.562-21.342 21.344s9.532 21.328 21.342 21.328H586.68c11.75 0 21.312-9.546 21.312-21.328s-9.562-21.344-21.312-21.344z" fill="#CCD1D9" p-id="36641"></path><path d="M541.32 875.342h-122.654L546.68 149.784h122.624z" fill="#FFFFFF" opacity=".1" p-id="36642"></path></svg>