<?xml version="1.0" standalone="no"?><!DOCTYPE svg PUBLIC "-//W3C//DTD SVG 1.1//EN" "http://www.w3.org/Graphics/SVG/1.1/DTD/svg11.dtd"><svg t="1745642681374" class="icon" viewBox="0 0 1024 1024" version="1.1" xmlns="http://www.w3.org/2000/svg" p-id="36974" xmlns:xlink="http://www.w3.org/1999/xlink" width="32" height="32"><path d="M981.296 362.66H42.686c-11.782 0-21.344 9.562-21.344 21.344v511.954c0 11.812 9.562 21.376 21.344 21.376h938.612a21.366 21.366 0 0 0 21.376-21.376V384.004c-0.002-11.782-9.564-21.344-21.378-21.344z" fill="#ED5564" p-id="36975"></path><path d="M128.012 513.938h202.666v248.898H128.012zM700.432 513.938h202.682v248.898H700.432z" fill="#5D9CEC" p-id="36976"></path><path d="M213.336 320.006c-11.78 0-21.326-9.562-21.326-21.344V213.32c0-11.78 9.546-21.312 21.326-21.312 11.782 0 21.344 9.532 21.344 21.312v85.342c0 11.782-9.562 21.344-21.344 21.344zM810.678 320.006c-11.81 0-21.374-9.562-21.374-21.344V213.32c0-11.78 9.562-21.312 21.374-21.312 11.75 0 21.312 9.532 21.312 21.312v85.342c0 11.782-9.562 21.344-21.312 21.344z" fill="#434A54" p-id="36977"></path><path d="M1002.672 277.318H21.342c-11.782 0-21.326 9.562-21.326 21.344v85.342c0 11.78 9.544 21.312 21.326 21.312h981.33c11.75 0 21.312-9.532 21.312-21.312v-85.342c0-11.782-9.562-21.344-21.312-21.344z" fill="#656D78" p-id="36978"></path><path d="M426.674 639.996h170.634v255.96h-170.634z" fill="#5D9CEC" p-id="36979"></path><path d="M597.308 917.332h-170.634c-11.782 0-21.344-9.562-21.344-21.376v-255.96c0-11.812 9.562-21.312 21.344-21.312h170.634c11.812 0 21.376 9.5 21.376 21.312v255.96a21.366 21.366 0 0 1-21.376 21.376z m-149.306-42.688h127.994V661.308h-127.994v213.336z" fill="#E6E9ED" p-id="36980"></path><path d="M597.308 789.336h-170.634c-11.782 0-21.344-9.562-21.344-21.376 0-11.75 9.562-21.312 21.344-21.312h170.634c11.812 0 21.376 9.562 21.376 21.312a21.366 21.366 0 0 1-21.376 21.376z" fill="#E6E9ED" p-id="36981"></path><path d="M597.308 575.998h-170.634c-11.782 0-21.344-9.562-21.344-21.312 0-11.81 9.562-21.374 21.344-21.374h170.634a21.366 21.366 0 0 1 21.376 21.374c0 11.75-9.562 21.312-21.376 21.312zM341.332 762.836H128.012c-11.782 0-21.328-17.938-21.328-40.062 0-22.186 9.546-40.124 21.328-40.124h213.32c11.782 0 21.344 17.938 21.344 40.124 0 22.124-9.562 40.062-21.344 40.062zM895.988 746.648H682.682c-11.81 0-21.374-14.312-21.374-31.998 0-17.688 9.562-32 21.374-32h213.306c11.782 0 21.312 14.312 21.312 32 0 17.686-9.53 31.998-21.312 31.998z" fill="#FFCE54" p-id="36982"></path><path d="M128.012 362.66c-11.782 0-21.328 9.562-21.328 21.344v21.312h42.654v-21.312c0-11.782-9.546-21.344-21.326-21.344zM213.336 362.66c-11.78 0-21.326 9.562-21.326 21.344v21.312h42.67v-21.312c0-11.782-9.562-21.344-21.344-21.344zM298.678 362.66c-11.782 0-21.344 9.562-21.344 21.344v21.312h42.672v-21.312c0-11.782-9.548-21.344-21.328-21.344zM384.004 362.66c-11.782 0-21.328 9.562-21.328 21.344v21.312h42.654v-21.312c0-11.782-9.544-21.344-21.326-21.344zM469.33 362.66c-11.782 0-21.328 9.562-21.328 21.344v21.312h42.67v-21.312c0-11.782-9.562-21.344-21.342-21.344zM554.686 362.66c-11.796 0-21.358 9.562-21.358 21.344v21.312h42.668v-21.312c0-11.782-9.56-21.344-21.31-21.344zM639.996 362.66c-11.782 0-21.312 9.562-21.312 21.344v21.312h42.624v-21.312c0-11.782-9.53-21.344-21.312-21.344zM725.304 362.66c-11.75 0-21.31 9.562-21.31 21.344v21.312h42.686v-21.312c0-11.782-9.562-21.344-21.376-21.344zM810.678 362.66c-11.81 0-21.374 9.562-21.374 21.344v21.312h42.686v-21.312c0-11.782-9.562-21.344-21.312-21.344zM895.988 362.66c-11.782 0-21.312 9.562-21.312 21.344v21.312h42.624v-21.312c0-11.782-9.53-21.344-21.312-21.344z" fill="#434A54" p-id="36983"></path><path d="M895.988 106.668H128.012c-11.782 0-21.328 9.562-21.328 21.342v85.31c0 11.782 9.546 21.344 21.328 21.344h767.976c11.782 0 21.312-9.562 21.312-21.344V128.01c0-11.78-9.53-21.342-21.312-21.342z" fill="#FFCE54" p-id="36984"></path><path d="M341.332 789.336H128.012c-11.782 0-21.328-9.562-21.328-21.376V511.968c0-11.782 9.546-21.312 21.328-21.312h213.32c11.782 0 21.344 9.532 21.344 21.312V767.96c0 11.814-9.562 21.376-21.344 21.376z m-191.994-42.688h170.668V533.312H149.338v213.336zM895.988 789.336H682.682a21.366 21.366 0 0 1-21.374-21.376V511.968c0-11.782 9.562-21.312 21.374-21.312h213.306a21.3 21.3 0 0 1 21.312 21.312V767.96c0 11.814-9.53 21.376-21.312 21.376z m-191.994-42.688h170.682V533.312h-170.682v213.336z" fill="#E6E9ED" p-id="36985"></path><path d="M1002.672 917.332H21.342c-11.782 0-21.326-9.562-21.326-21.376 0-11.75 9.544-21.312 21.326-21.312h981.33c11.75 0 21.312 9.562 21.312 21.312 0 11.814-9.562 21.376-21.312 21.376z" fill="#434A54" p-id="36986"></path></svg>