<?xml version="1.0" standalone="no"?><!DOCTYPE svg PUBLIC "-//W3C//DTD SVG 1.1//EN" "http://www.w3.org/Graphics/SVG/1.1/DTD/svg11.dtd"><svg t="1745801636843" class="icon" viewBox="0 0 1024 1024" version="1.1" xmlns="http://www.w3.org/2000/svg" p-id="37129" xmlns:xlink="http://www.w3.org/1999/xlink" width="32" height="32"><path d="M810.494 661.258c0 176.652-143.184 319.836-319.836 319.836-176.624 0-319.838-143.184-319.838-319.836 0-176.624 143.214-319.824 319.838-319.824 176.652 0 319.836 143.2 319.836 319.824z" fill="#5D9CEC" p-id="37130"></path><path d="M731.902 420.024c-64.436-64.418-150.122-99.918-241.244-99.918-91.124 0-176.78 35.5-241.214 99.918-64.438 64.454-99.936 150.108-99.936 241.234 0 91.122 35.498 176.808 99.936 241.242 64.436 64.438 150.09 99.906 241.214 99.906s176.808-35.468 241.244-99.906c64.436-64.434 99.904-150.122 99.904-241.242 0-91.126-35.468-176.78-99.904-241.234zM192.944 683.008h108.498c1.812 45.622 9.062 88.184 18.218 125.278h-88.966c-21.656-38.188-34.564-80.75-37.75-125.278z m276.402-319.496v276.872h-125.248c5.406-132.842 60.686-241.122 76.404-269.356a297.544 297.544 0 0 1 48.844-7.516z m42.654 0a297.16 297.16 0 0 1 48.812 7.516c15.718 28.234 71 136.512 76.438 269.356H512V363.512z m-167.872 319.496h125.216v125.278h-105.592c-9.966-37.408-17.686-79.908-19.624-125.278z m125.218 167.902v108.122a302.566 302.566 0 0 1-48.844-7.532c-8.124-14.624-26.874-50.718-43.842-100.59h92.686z m42.654 0h92.656c-16.968 49.902-35.718 85.996-43.844 100.59A302.398 302.398 0 0 1 512 959.032v-108.122z m0-42.624v-125.278h125.218c-1.938 45.372-9.656 87.872-19.624 125.278H512z m167.874-125.278H788.4c-3.188 44.528-16.124 87.09-37.782 125.278h-88.964c9.188-37.094 16.406-79.658 18.22-125.278z m108.558-42.626h-108.528c-3.188-83.718-24.718-157.264-43.06-205.67a712.338 712.338 0 0 0-17.968-43.186c30.374 14.452 58.374 34.17 82.874 58.654 51.432 51.438 81.776 118.328 86.682 190.202zM279.566 450.18c24.5-24.484 52.532-44.202 82.906-58.654a690.624 690.624 0 0 0-18 43.186c-18.312 48.406-39.876 121.952-43.062 205.67H192.88c4.938-71.874 35.282-138.764 86.686-190.202z m-19.466 400.73h71.592a686.56 686.56 0 0 0 12.782 36.906 687.502 687.502 0 0 0 18 43.184c-30.376-14.468-58.406-34.156-82.906-58.652a313.44 313.44 0 0 1-19.468-21.438zM618.876 931a712.666 712.666 0 0 0 30.778-80.09h71.56a306.798 306.798 0 0 1-19.466 21.438c-24.5 24.496-52.5 44.184-82.872 58.652z" fill="#4A89DC" p-id="37131"></path><path d="M767.838 194.03H213.474c-11.782 0-21.344 9.546-21.344 21.328v254.01c0 11.782 9.562 21.328 21.344 21.328 50 0 212.622 45.514 271.058 63.062 2 0.594 4.062 0.906 6.124 0.906s4.124-0.312 6.124-0.906c58.532-17.546 221.31-63.062 271.056-63.062 11.782 0 21.344-9.546 21.344-21.328V215.358c0.002-11.782-9.56-21.328-21.342-21.328z" fill="#656D78" p-id="37132"></path><path d="M965.618 150.28L496.282 22.344c-3.686-1-7.56-1-11.216 0L15.698 150.28A21.334 21.334 0 0 0 0.01 170.858c0 9.608 6.438 18.046 15.688 20.562l469.368 127.936a21.394 21.394 0 0 0 11.218 0L965.618 191.42a21.304 21.304 0 0 0 15.718-20.562c0-9.624-6.438-18.046-15.718-20.578z" fill="#434A54" p-id="37133"></path><path d="M959.992 192.17H469.596c-11.782 0-21.312-9.546-21.312-21.312 0-11.782 9.532-21.328 21.312-21.328h490.396c11.782 0 21.344 9.546 21.344 21.328 0 11.766-9.562 21.312-21.344 21.312z" fill="#F6BB42" p-id="37134"></path><path d="M959.992 298.792c-11.75 0-21.31-9.546-21.31-21.328V170.858c0-11.782 9.56-21.328 21.31-21.328 11.782 0 21.344 9.546 21.344 21.328v106.606c0 11.782-9.562 21.328-21.344 21.328z" fill="#F6BB42" p-id="37135"></path><path d="M1020.398 329.606l-42.656-63.968a21.27 21.27 0 0 0-17.75-9.5c-7.124 0-13.78 3.562-17.716 9.5l-42.656 63.968a21.24 21.24 0 0 0-3.562 11.828v106.606c0 11.782 9.532 21.328 21.312 21.328h85.28c11.782 0 21.342-9.546 21.342-21.328v-106.606a21.288 21.288 0 0 0-3.594-11.828z" fill="#FFCE54" p-id="37136"></path></svg>